# xmcd CD database file
#
# Track frame offsets:
#	150
#	15875
#	35766
#	49564
#
# Disc length: 899 seconds
#
# Revision: 0
# Processed by: cddbd v1.5.1PL0 Copyright (c) Steve Scherf et al.
# Submitted via: CDex 1.51
#
DISCID=23038104
DTITLE=soul source - 紫陽花
DYEAR=1900
DGENRE=Techno
TTITLE0=紫陽花
TTITLE1=sprit
TTITLE2=blank box
TTITLE3=flower without seed
EXTD=
EXTT0=
EXTT1=
EXTT2=
EXTT3=
PLAYORDER=
